# xmcd
#
# Track frame offsets:
#	150
#	12245
#	27445
#	39277
#	49385
#	63647
#	76913
#	88880
#	103218
#	118126
#
# Disc length: 1819 seconds
#
# Revision: 1
# Processed by: cddbd v1.5.2PL0 Copyright (c) Steve Scherf et al.
# Submitted via: audiograbber 1.83.01
#
DISCID=8507190a
DTITLE=Reba McEntire - Live Country Masters - Today All Over Again
DYEAR=2005
DGENRE=Country
TTITLE0=Open Road
TTITLE1=Today All Over Again
TTITLE2=I'm Not That Lonely
TTITLE3=What We Can't Have
TTITLE4=You're The First Time I've Thought About Leavin'
TTITLE5=Who Ever's Watchin'
TTITLE6=Silver Eagle
TTITLE7=He Broke Your Memory Last Night
TTITLE8=Daddy
TTITLE9=Love, Lift Me Up
EXTD=
EXTT0=
EXTT1=
EXTT2=
EXTT3=
EXTT4=
EXTT5=
EXTT6=
EXTT7=
EXTT8=
EXTT9=
PLAYORDER=
